<svg width="127" height="124" viewBox="0 0 127 124" fill="none" xmlns="http://www.w3.org/2000/svg">
<path d="M79.3825 1.97066C94.1795 5.70286 107.102 14.5203 115.777 26.8048C124.452 39.0893 128.299 54.0166 126.612 68.847C124.924 83.6775 117.815 97.4161 106.589 107.541C95.3631 117.667 80.7738 123.5 65.4986 123.969C50.2235 124.439 35.2872 119.514 23.4312 110.098C11.5752 100.683 3.59478 87.4079 0.954683 72.7105C-1.68542 58.0131 1.1919 42.8791 9.05856 30.086C16.9252 17.293 29.2534 7.69911 43.7806 3.06529L45.3728 7.8237C32.0185 12.0834 20.6857 20.9026 13.4542 32.6628C6.22267 44.4229 3.57767 58.335 6.0046 71.8458C8.43154 85.3565 15.7676 97.5594 26.6664 106.215C37.5651 114.87 51.2954 119.398 65.3373 118.966C79.3791 118.534 92.7905 113.172 103.11 103.864C113.429 94.5566 119.964 81.9272 121.516 68.2942C123.067 54.6611 119.531 40.9391 111.556 29.6465C103.581 18.3539 91.7024 10.2483 78.1002 6.81744L79.3825 1.97066Z" fill="black"/>
<path d="M44.2357 32.116C39.0341 35.4612 34.7754 39.8155 31.7889 44.8421C28.8024 49.8687 27.1681 55.433 27.0123 61.1049C26.8565 66.7768 28.1834 72.4042 30.8904 77.5522C33.5974 82.7002 37.6121 87.2308 42.6239 90.7938L57.7196 74.3144C55.5762 72.7906 53.8592 70.8529 52.7015 68.6513C51.5438 66.4496 50.9763 64.0429 51.043 61.6172C51.1096 59.1915 51.8085 56.8118 53.0858 54.662C54.363 52.5123 56.1844 50.6501 58.409 49.2194L44.2357 32.116Z" fill="#FC255A"/>
<path d="M83.4359 91.962C88.7132 88.6332 93.0405 84.2924 96.0832 79.2753C99.1259 74.2581 100.803 68.699 100.984 63.0276C101.165 57.3563 99.8451 51.7247 97.127 46.5682C94.409 41.4117 90.3653 36.8684 85.3084 33.2896L69.9653 49.7213C72.1279 51.2519 73.8573 53.1949 75.0198 55.4002C76.1822 57.6055 76.7465 60.014 76.6691 62.4395C76.5917 64.865 75.8746 67.2425 74.5734 69.3882C73.2721 71.5339 71.4214 73.3903 69.1644 74.814L83.4359 91.962Z" fill="#28B1E3"/>
<ellipse cx="41.5" cy="6" rx="5.5" ry="5" fill="#D9D9D9"/>
<circle cx="78" cy="6" r="5" fill="#D9D9D9"/>
</svg>
